<svg width="28" height="28" viewBox="0 0 28 28" fill="none" xmlns="http://www.w3.org/2000/svg">
<path d="M5 5V23.2902C5 24.8198 6.64731 25.7832 7.98052 25.0333L14 21.6473L20.0195 25.0333C21.3527 25.7832 23 24.8198 23 23.2902V5C23 3.89543 22.1046 3 21 3H7C5.89543 3 5 3.89543 5 5Z" stroke="#BBBFC7" stroke-width="2" stroke-linecap="round"/>
<path d="M13.6319 8.1679C13.7478 7.81122 14.2524 7.81122 14.3683 8.1679L15.3474 11.1811C15.3992 11.3406 15.5479 11.4486 15.7156 11.4486H18.8839C19.2589 11.4486 19.4148 11.9285 19.1114 12.149L16.5482 14.0112C16.4125 14.1098 16.3557 14.2846 16.4076 14.4441L17.3866 17.4573C17.5025 17.814 17.0943 18.1106 16.7909 17.8901L14.2277 16.0279C14.092 15.9293 13.9083 15.9293 13.7726 16.0279L11.2094 17.8901C10.906 18.1106 10.4977 17.814 10.6136 17.4573L11.5927 14.4441C11.6445 14.2846 11.5877 14.1098 11.452 14.0112L8.88884 12.149C8.58543 11.9285 8.74137 11.4486 9.1164 11.4486H12.2847C12.4524 11.4486 12.601 11.3406 12.6529 11.1811L13.6319 8.1679Z" fill="#BBBFC7"/>
</svg>
